PathFileType	4	(X/Y/Z)	/Users/rkoike/Documents/python/sports2d/webcam_20250611_152632/webcam_20250611_152632_px_person02.trc
DataRate	CameraRate	NumFrames	NumMarkers	Units	OrigDataRate	OrigDataStartFrame	OrigNumFrames
30	30	9	22	m	30	0	2485
Frame#	Time	Hip			RHip			RKnee			RAnkle			RBigToe			RSmallToe			RHeel			LHip			LKnee			LAnkle			LBigToe			LSmallToe			LHeel			Neck			Head			Nose			RShoulder			RElbow			RWrist			LShoulder			LElbow			LWrist			
		X1	Y1	Z1	X2	Y2	Z2	X3	Y3	Z3	X4	Y4	Z4	X5	Y5	Z5	X6	Y6	Z6	X7	Y7	Z7	X8	Y8	Z8	X9	Y9	Z9	X10	Y10	Z10	X11	Y11	Z11	X12	Y12	Z12	X13	Y13	Z13	X14	Y14	Z14	X15	Y15	Z15	X16	Y16	Z16	X17	Y17	Z17	X18	Y18	Z18	X19	Y19	Z19	X20	Y20	Z20	X21	Y21	Z21	X22	Y22	Z22
0	0.0	250.29251969777005	448.30396931397826	0.0	219.39301157421184	468.2707825442715	0.0	161.37656545944438	789.3278579523259	0.0	156.2381428371521	702.3461898990306	0.0	1526.68017578125	391.271484375	0.0	541.9296874903217	147.21093742924813	0.0	528.492187455516	716.6249996765132	0.0	292.0655224899556	546.1952115018278	0.0	426.1969850770322	816.5190741528967	0.0	212.25376008653527	702.3461957146801	0.0	629.8403795030381	611.4361839161979	0.0			0.0	1004.9312256396479	670.3443457308271	0.0	235.7404261527986	88.84171169067547	0.0	610.5580625397204	171.0228098372725	0.0	-1594.537838110483	-1730.7260396286479	0.0	79.75853148523056	10.902769620156667	0.0	50.801890425199126	167.03265017669827	0.0	299.4529812965513	139.82631994012743	0.0	408.05485212259094	177.69888465978391	0.0	471.5305806982805	467.98991004466205	0.0	449.8129689371977	444.68579552869375	0.0
1	0.033346752549651096	227.35450129098805	458.27758581133276	0.0	187.6646793664951	479.1512373197518	0.0	139.77000061447478	773.3943547255548	0.0	156.2389785806534	702.3461991946166	0.0	1526.68017578125	391.271484375	0.0	541.9296851579567	147.21093751436752	0.0	528.4921858074407	716.6250081056203	0.0	275.4394233571169	537.2988881473595	0.0	382.4704959288854	795.1779293305574	0.0	212.25464768389696	702.3461700703584	0.0	629.8403795030381	611.4361839161979	0.0			0.0	1004.9312256396479	670.3443457308271	0.0	206.64576068475026	71.71008152853562	0.0	615.2923706965596	174.64574203258607	0.0	-1152.3676438381904	-1309.0847458298801	0.0	66.12432976831515	10.776052551164375	0.0	51.991151924717826	178.53036428164327	0.0	306.71073363890497	154.0624594183134	0.0	363.36322808598993	148.7329652989613	0.0	420.07674980195657	427.1247717007542	0.0	410.6895033863507	456.4248671320413	0.0
2	0.06669350509930219	192.03186624502402	463.05493960298196	0.0	145.01992244036845	485.6685152363726	0.0	112.17020074497357	758.1295429970777	0.0	156.24030404791554	702.34621380095	0.0	1526.68017578125	391.271484375	0.0	541.9296831297129	147.21093788843186	0.0	528.4921845331131	716.6250169482589	0.0	245.12061856739973	522.9280850400295	0.0	324.24344347555956	774.1920207228104	0.0	212.25605185712448	702.3461291404291	0.0	629.8403795030381	611.4361839161979	0.0			0.0	1004.9312256396479	670.3443457308271	0.0	162.9538907125542	42.879736267642244	0.0	619.6916003995926	178.17472975235364	0.0	-698.6605412899239	-875.3754294501805	0.0	41.058487523918	-0.47799453223794186	0.0	48.74178060491026	179.55422574506255	0.0	310.7765650869824	156.7457464395989	0.0	300.97167180241007	107.29029112800167	0.0	347.4756263862873	374.6132304215462	0.0	352.4291356482338	463.24486239912767	0.0
3	0.10004025764895329	156.2735954907202	467.75783854254354	0.0	101.43983324649469	492.2990399962473	0.0	84.38201137266829	742.7690697973946	0.0	156.2385373507724	702.3461938937329	0.0	1526.68017578125	391.271484375	0.0	541.9296912131986	147.21093815964412	0.0	528.4921905447677	716.6249905892406	0.0	214.07008763177828	507.839581681324	0.0	258.45556882456793	752.9241855912178	0.0	212.2541688779366	702.3461828623296	0.0	629.8403795030381	611.4361839161979	0.0			0.0	1004.9312256396479	670.3443457308271	0.0	117.65319187025679	12.50216346383955	0.0	624.3301759134034	181.7722047072936	0.0	-227.56867333423486	-425.1567219031026	0.0	15.09190248058518	-12.383800287095852	0.0	45.21930414641858	180.4303601340176	0.0	315.57287881317814	158.94538101596342	0.0	236.7397107709489	64.25349640146712	0.0	270.41877325374486	320.8997093116908	0.0	285.1229731236816	470.2483937924602	0.0
4	0.13338701019860438	181.44166462183696	498.28326163481205	0.0	110.30791437395075	521.0129272360354	0.0	86.10166029291075	723.8812077661598	0.0	156.22843443207805	702.3460817342191	0.0	1526.68017578125	391.271484375	0.0	541.9297168256124	147.21093676116598	0.0	528.4922083972604	716.6248956886967	0.0	249.82802424473311	518.5085464819157	0.0	248.09387263530024	729.2740289734537	0.0	212.2434445823225	702.3464932646028	0.0	629.8403795030381	611.4361839161979	0.0			0.0	1004.9312256396479	670.3443457308271	0.0	141.6811235229623	37.08185429695981	0.0	631.2552412610518	186.01144046151012	0.0	225.05759384705735	1.9365494821442675	0.0	44.21856019232546	29.825133771169885	0.0	63.251532862955514	233.31658201723482	0.0	337.9823455376842	217.802409459353	0.0	256.83283650842344	79.95443900143859	0.0	289.02295245256244	322.6719385867742	0.0	293.0800854820964	502.2116192991012	0.0
5	0.16673376274825547	318.7722551838451	575.7964619803819	0.0	218.52289239607992	589.0289010947288	0.0	142.03370388842822	699.098786238077	0.0	156.2183912752808	702.345971738991	0.0	1526.68017578125	391.271484375	0.0	541.929723878174	147.21093273703437	0.0	528.4922113864495	716.6248512115166	0.0	409.8416339385771	579.2525549700975	0.0	375.4594202106981	702.7245885214965	0.0	212.23282264797348	702.3468046810702	0.0	629.8403795030381	611.4361839161979	0.0			0.0	1004.9312256396479	670.3443457308271	0.0	298.88584356204734	168.58829765311452	0.0	641.109446831421	191.06660887710365	0.0	557.7461931876337	305.0430659290628	0.0	177.29587366374471	172.97958352615873	0.0	121.5592714589766	380.83561850424906	0.0	388.5498324672966	381.35445240358376	0.0	438.3291576456805	209.6409755208068	0.0	502.5235154517232	430.6041216956713	0.0	481.9735049750556	578.3250343508894	0.0
6	0.20008051529790657	469.9061547333496	654.6634818205924	0.0	345.9184298352611	656.5032855268074	0.0	206.27452336166152	677.2017589065516	0.0	156.25103266659738	702.3463369459744	0.0	1526.68017578125	391.271484375	0.0	541.9296063886271	147.21093228483033	0.0	528.4921258575343	716.6252519199534	0.0	585.1593271622407	650.0403824514219	0.0	572.1234060632802	681.5127008248165	0.0	212.2675450917421	702.3458071852095	0.0	629.8403795030381	611.4361839161979	0.0			0.0	1004.9312256396479	670.3443457308271	0.0	481.0657758448529	322.11991399927996	0.0	644.7299415581745	194.36097914004318	0.0	662.6218561495825	392.95393241767	0.0	326.12808917819575	328.78507250516253	0.0	184.57463375114833	535.6450839435422	0.0	433.3372579084324	556.0061356880868	0.0	649.9049630511524	363.91804570606234	0.0	768.9120493079286	559.2404040139037	0.0	753.9632864973099	651.1924392360424	0.0
7	0.23342726784755768	454.41126449307967	649.8623835945587	0.0	338.7199205550067	650.6078135002934	0.0	195.8739241956053	674.5742428281569	0.0	156.3639196470329	702.3475878629895	0.0	1526.68017578125	391.271484375	0.0	541.9293486556551	147.21095198207405	0.0	528.4919491890518	716.6262352420537	0.0	570.8505395909555	647.4237271500015	0.0	605.905907138292	678.9582481531917	0.0	212.38731498973434	702.3423344378618	0.0	629.8403795030381	611.4361839161979	0.0			0.0	1004.9312256396479	670.344345730827	0.0	472.7007697516043	324.752988886928	0.0	621.628770663049	190.16599560715258	0.0	532.4794521535702	280.40203098983716	0.0	320.66438482887406	328.89431984771204	0.0	183.86567953179835	537.9657726219891	0.0	419.90629954477544	565.7368156421761	0.0	632.4731431056507	361.95242942582667	0.0	771.4384706108257	541.6287992047431	0.0	801.7856229010945	626.085134942166	0.0
8	0.26677402039720877	281.24659207842797	562.9700762359129	0.0	199.57509184830093	571.6197918830397	0.0	117.23733416534364	688.5983641030971	0.0	156.41025626822548	702.3480834366042	0.0	1526.68017578125	391.271484375	0.0	541.9294622837052	147.21099146243415	0.0	528.4920525774565	716.6260445321283	0.0	372.70110499543046	563.9224312636719	0.0	411.5763254487889	691.2718722095433	0.0	212.43601288222078	702.3408750076915	0.0	629.8403795030381	611.4361839161979	0.0			0.0	1004.931225639648	670.3443457308268	0.0	271.5544372822136	174.07944680580485	0.0	558.994513050511	174.99765100979454	0.0	304.67620456429074	99.26181679622859	0.0	164.3126624414274	177.28895300065867	0.0	120.5904473822521	394.689672635347	0.0	356.20046416381786	412.6799062897245	0.0	385.0809437821939	201.4712570622437	0.0	483.19256366045335	381.61763304345493	0.0	547.1162294674314	490.99613033483615	0.0
